<mxfile host="app.diagrams.net" modified="2024-03-27T15:03:38.253Z" agent="Mozilla/5.0 (Windows NT 10.0; Win64; x64) AppleWebKit/537.36 (KHTML, like Gecko) Chrome/122.0.0.0 Safari/537.36" etag="0XqtDj1_R3ibNDCryPCF" version="24.1.0" type="github">
  <diagram name="Page-1" id="2YBvvXClWsGukQMizWep">
    <mxGraphModel dx="1149" dy="563" grid="1" gridSize="10" guides="1" tooltips="1" connect="1" arrows="1" fold="1" page="1" pageScale="1" pageWidth="850" pageHeight="1100" math="0" shadow="0">
      <root>
        <mxCell id="0" />
        <mxCell id="1" parent="0" />
        <mxCell id="BawpG8Cm80USLl9guj2P-1" value="&lt;font style=&quot;font-size: 17px;&quot; face=&quot;Times New Roman&quot;&gt;&lt;u&gt;Data Collection&lt;/u&gt;&lt;/font&gt;" style="rounded=0;whiteSpace=wrap;html=1;labelBackgroundColor=none;" vertex="1" parent="1">
          <mxGeometry x="60" y="40" width="120" height="60" as="geometry" />
        </mxCell>
        <mxCell id="BawpG8Cm80USLl9guj2P-2" value="" style="endArrow=none;dashed=1;html=1;rounded=0;labelBackgroundColor=none;fontColor=default;" edge="1" parent="1">
          <mxGeometry width="50" height="50" relative="1" as="geometry">
            <mxPoint x="119.5" y="170" as="sourcePoint" />
            <mxPoint x="119.5" y="100" as="targetPoint" />
          </mxGeometry>
        </mxCell>
        <mxCell id="BawpG8Cm80USLl9guj2P-5" value="&lt;p class=&quot;MsoNormal&quot;&gt;&lt;font style=&quot;font-size: 16px;&quot; face=&quot;Times New Roman&quot;&gt;Collect the data &amp;nbsp;from the user feature on cnn&lt;/font&gt;&lt;/p&gt;" style="text;whiteSpace=wrap;html=1;labelBackgroundColor=none;" vertex="1" parent="1">
          <mxGeometry x="42.5" y="150" width="155" height="50" as="geometry" />
        </mxCell>
        <mxCell id="BawpG8Cm80USLl9guj2P-6" value="" style="verticalLabelPosition=bottom;verticalAlign=top;html=1;shape=mxgraph.basic.rect;fillColor2=none;strokeWidth=1;size=0;indent=5;direction=south;labelBackgroundColor=none;" vertex="1" parent="1">
          <mxGeometry x="115" y="210" width="10" height="50" as="geometry" />
        </mxCell>
        <mxCell id="BawpG8Cm80USLl9guj2P-8" value="" style="endArrow=none;html=1;rounded=0;labelBackgroundColor=none;fontColor=default;" edge="1" parent="1">
          <mxGeometry relative="1" as="geometry">
            <mxPoint x="125" y="210" as="sourcePoint" />
            <mxPoint x="220" y="210" as="targetPoint" />
            <Array as="points">
              <mxPoint x="137.5" y="210" />
            </Array>
          </mxGeometry>
        </mxCell>
        <mxCell id="BawpG8Cm80USLl9guj2P-10" value="" style="endArrow=classic;html=1;rounded=0;labelBackgroundColor=none;fontColor=default;" edge="1" parent="1">
          <mxGeometry width="50" height="50" relative="1" as="geometry">
            <mxPoint x="220" y="230" as="sourcePoint" />
            <mxPoint x="140" y="230" as="targetPoint" />
          </mxGeometry>
        </mxCell>
        <mxCell id="BawpG8Cm80USLl9guj2P-11" value="" style="endArrow=none;dashed=1;html=1;rounded=0;labelBackgroundColor=none;fontColor=default;" edge="1" parent="1">
          <mxGeometry width="50" height="50" relative="1" as="geometry">
            <mxPoint x="119.5" y="260" as="sourcePoint" />
            <mxPoint x="120" y="310" as="targetPoint" />
          </mxGeometry>
        </mxCell>
        <mxCell id="BawpG8Cm80USLl9guj2P-14" value="" style="rounded=0;whiteSpace=wrap;html=1;direction=south;labelBackgroundColor=none;" vertex="1" parent="1">
          <mxGeometry x="115" y="290" width="10" height="40" as="geometry" />
        </mxCell>
        <mxCell id="BawpG8Cm80USLl9guj2P-15" value="" style="endArrow=classic;html=1;rounded=0;labelBackgroundColor=none;fontColor=default;entryX=1;entryY=0.5;entryDx=0;entryDy=0;entryPerimeter=0;" edge="1" parent="1" target="BawpG8Cm80USLl9guj2P-78">
          <mxGeometry width="50" height="50" relative="1" as="geometry">
            <mxPoint x="125" y="290" as="sourcePoint" />
            <mxPoint x="380" y="290" as="targetPoint" />
          </mxGeometry>
        </mxCell>
        <mxCell id="BawpG8Cm80USLl9guj2P-16" value="" style="endArrow=none;dashed=1;html=1;rounded=0;labelBackgroundColor=none;fontColor=default;exitX=1;exitY=0.5;exitDx=0;exitDy=0;" edge="1" parent="1" source="BawpG8Cm80USLl9guj2P-14">
          <mxGeometry width="50" height="50" relative="1" as="geometry">
            <mxPoint x="119.5" y="360" as="sourcePoint" />
            <mxPoint x="120" y="680" as="targetPoint" />
          </mxGeometry>
        </mxCell>
        <mxCell id="BawpG8Cm80USLl9guj2P-17" value="&lt;u&gt;&lt;font style=&quot;font-size: 24px;&quot; face=&quot;Times New Roman&quot;&gt;&lt;font style=&quot;&quot;&gt;Trai&lt;/font&gt;ning&lt;/font&gt;&lt;/u&gt;" style="rounded=0;whiteSpace=wrap;html=1;labelBackgroundColor=none;" vertex="1" parent="1">
          <mxGeometry x="330" y="40" width="120" height="60" as="geometry" />
        </mxCell>
        <mxCell id="BawpG8Cm80USLl9guj2P-18" value="" style="rounded=0;whiteSpace=wrap;html=1;direction=south;labelBackgroundColor=none;" vertex="1" parent="1">
          <mxGeometry x="385" y="130" width="10" height="60" as="geometry" />
        </mxCell>
        <mxCell id="BawpG8Cm80USLl9guj2P-19" value="" style="endArrow=none;dashed=1;html=1;rounded=0;labelBackgroundColor=none;fontColor=default;" edge="1" parent="1">
          <mxGeometry width="50" height="50" relative="1" as="geometry">
            <mxPoint x="390" y="190" as="sourcePoint" />
            <mxPoint x="390" y="250" as="targetPoint" />
          </mxGeometry>
        </mxCell>
        <mxCell id="BawpG8Cm80USLl9guj2P-25" value="" style="endArrow=none;dashed=1;html=1;rounded=0;labelBackgroundColor=none;fontColor=default;" edge="1" parent="1" source="BawpG8Cm80USLl9guj2P-80">
          <mxGeometry width="50" height="50" relative="1" as="geometry">
            <mxPoint x="390" y="340" as="sourcePoint" />
            <mxPoint x="390" y="360" as="targetPoint" />
          </mxGeometry>
        </mxCell>
        <mxCell id="BawpG8Cm80USLl9guj2P-26" value="" style="endArrow=none;dashed=1;html=1;rounded=0;labelBackgroundColor=none;fontColor=default;" edge="1" parent="1">
          <mxGeometry width="50" height="50" relative="1" as="geometry">
            <mxPoint x="389.5" y="320" as="sourcePoint" />
            <mxPoint x="389.5" y="320" as="targetPoint" />
          </mxGeometry>
        </mxCell>
        <mxCell id="BawpG8Cm80USLl9guj2P-27" value="" style="rounded=0;whiteSpace=wrap;html=1;direction=south;labelBackgroundColor=none;" vertex="1" parent="1">
          <mxGeometry x="385" y="380" width="10" height="30" as="geometry" />
        </mxCell>
        <mxCell id="BawpG8Cm80USLl9guj2P-28" value="" style="endArrow=none;dashed=1;html=1;rounded=0;labelBackgroundColor=none;fontColor=default;" edge="1" parent="1">
          <mxGeometry width="50" height="50" relative="1" as="geometry">
            <mxPoint x="389.5" y="400" as="sourcePoint" />
            <mxPoint x="390" y="450" as="targetPoint" />
          </mxGeometry>
        </mxCell>
        <mxCell id="BawpG8Cm80USLl9guj2P-29" value="" style="rounded=0;whiteSpace=wrap;html=1;direction=south;labelBackgroundColor=none;" vertex="1" parent="1">
          <mxGeometry x="385" y="450" width="10" height="60" as="geometry" />
        </mxCell>
        <mxCell id="BawpG8Cm80USLl9guj2P-30" value="" style="endArrow=none;dashed=1;html=1;rounded=0;labelBackgroundColor=none;fontColor=default;" edge="1" parent="1">
          <mxGeometry width="50" height="50" relative="1" as="geometry">
            <mxPoint x="389.44" y="510" as="sourcePoint" />
            <mxPoint x="390" y="680" as="targetPoint" />
          </mxGeometry>
        </mxCell>
        <mxCell id="BawpG8Cm80USLl9guj2P-33" value="" style="endArrow=none;html=1;rounded=0;labelBackgroundColor=none;fontColor=default;" edge="1" parent="1">
          <mxGeometry relative="1" as="geometry">
            <mxPoint x="388" y="308.89" as="sourcePoint" />
            <mxPoint x="460" y="309" as="targetPoint" />
          </mxGeometry>
        </mxCell>
        <mxCell id="BawpG8Cm80USLl9guj2P-35" value="" style="endArrow=classic;html=1;rounded=0;labelBackgroundColor=none;fontColor=default;" edge="1" parent="1">
          <mxGeometry width="50" height="50" relative="1" as="geometry">
            <mxPoint x="460" y="330" as="sourcePoint" />
            <mxPoint x="395" y="330" as="targetPoint" />
          </mxGeometry>
        </mxCell>
        <mxCell id="BawpG8Cm80USLl9guj2P-36" value="" style="endArrow=none;html=1;rounded=0;" edge="1" parent="1">
          <mxGeometry relative="1" as="geometry">
            <mxPoint x="395" y="390" as="sourcePoint" />
            <mxPoint x="480" y="390" as="targetPoint" />
          </mxGeometry>
        </mxCell>
        <mxCell id="BawpG8Cm80USLl9guj2P-38" value="" style="endArrow=none;html=1;rounded=0;" edge="1" parent="1">
          <mxGeometry relative="1" as="geometry">
            <mxPoint x="600" y="370" as="sourcePoint" />
            <mxPoint x="600" y="370" as="targetPoint" />
          </mxGeometry>
        </mxCell>
        <mxCell id="BawpG8Cm80USLl9guj2P-42" value="" style="endArrow=none;html=1;rounded=0;" edge="1" parent="1">
          <mxGeometry relative="1" as="geometry">
            <mxPoint x="480" y="390" as="sourcePoint" />
            <mxPoint x="480" y="410" as="targetPoint" />
            <Array as="points" />
          </mxGeometry>
        </mxCell>
        <mxCell id="BawpG8Cm80USLl9guj2P-43" value="" style="endArrow=classic;html=1;rounded=0;" edge="1" parent="1">
          <mxGeometry width="50" height="50" relative="1" as="geometry">
            <mxPoint x="480" y="410.44" as="sourcePoint" />
            <mxPoint x="410" y="410.44" as="targetPoint" />
            <Array as="points">
              <mxPoint x="440" y="410" />
            </Array>
          </mxGeometry>
        </mxCell>
        <mxCell id="BawpG8Cm80USLl9guj2P-47" value="" style="endArrow=classic;html=1;rounded=0;entryX=0.25;entryY=1;entryDx=0;entryDy=0;" edge="1" parent="1" target="BawpG8Cm80USLl9guj2P-52">
          <mxGeometry width="50" height="50" relative="1" as="geometry">
            <mxPoint x="395" y="450" as="sourcePoint" />
            <mxPoint x="650" y="450" as="targetPoint" />
            <Array as="points">
              <mxPoint x="485" y="450" />
            </Array>
          </mxGeometry>
        </mxCell>
        <mxCell id="BawpG8Cm80USLl9guj2P-49" value="&lt;u&gt;&lt;font face=&quot;Times New Roman&quot; style=&quot;font-size: 24px;&quot;&gt;Testing&lt;/font&gt;&lt;/u&gt;" style="rounded=0;whiteSpace=wrap;html=1;" vertex="1" parent="1">
          <mxGeometry x="600" y="40" width="120" height="60" as="geometry" />
        </mxCell>
        <mxCell id="BawpG8Cm80USLl9guj2P-50" value="" style="rounded=0;whiteSpace=wrap;html=1;direction=south;" vertex="1" parent="1">
          <mxGeometry x="655" y="100" width="10" height="60" as="geometry" />
        </mxCell>
        <mxCell id="BawpG8Cm80USLl9guj2P-51" value="" style="endArrow=none;dashed=1;html=1;rounded=0;entryX=1;entryY=0.5;entryDx=0;entryDy=0;" edge="1" parent="1" target="BawpG8Cm80USLl9guj2P-50">
          <mxGeometry width="50" height="50" relative="1" as="geometry">
            <mxPoint x="660" y="440" as="sourcePoint" />
            <mxPoint x="705" y="230" as="targetPoint" />
          </mxGeometry>
        </mxCell>
        <mxCell id="BawpG8Cm80USLl9guj2P-52" value="" style="rounded=0;whiteSpace=wrap;html=1;direction=south;" vertex="1" parent="1">
          <mxGeometry x="655" y="440" width="10" height="40" as="geometry" />
        </mxCell>
        <mxCell id="BawpG8Cm80USLl9guj2P-53" value="" style="endArrow=none;dashed=1;html=1;rounded=0;entryX=1;entryY=0.5;entryDx=0;entryDy=0;" edge="1" parent="1" target="BawpG8Cm80USLl9guj2P-52">
          <mxGeometry width="50" height="50" relative="1" as="geometry">
            <mxPoint x="660" y="520" as="sourcePoint" />
            <mxPoint x="665" y="520" as="targetPoint" />
          </mxGeometry>
        </mxCell>
        <mxCell id="BawpG8Cm80USLl9guj2P-54" value="" style="rounded=0;whiteSpace=wrap;html=1;direction=south;labelBackgroundColor=none;" vertex="1" parent="1">
          <mxGeometry x="655" y="520" width="10" height="40" as="geometry" />
        </mxCell>
        <mxCell id="BawpG8Cm80USLl9guj2P-55" value="" style="endArrow=none;dashed=1;html=1;rounded=0;" edge="1" parent="1">
          <mxGeometry width="50" height="50" relative="1" as="geometry">
            <mxPoint x="659.44" y="560" as="sourcePoint" />
            <mxPoint x="659.44" y="590" as="targetPoint" />
          </mxGeometry>
        </mxCell>
        <mxCell id="BawpG8Cm80USLl9guj2P-56" value="" style="rounded=0;whiteSpace=wrap;html=1;direction=south;labelBackgroundColor=none;" vertex="1" parent="1">
          <mxGeometry x="655" y="580" width="10" height="30" as="geometry" />
        </mxCell>
        <mxCell id="BawpG8Cm80USLl9guj2P-58" value="" style="endArrow=none;dashed=1;html=1;rounded=0;" edge="1" parent="1">
          <mxGeometry width="50" height="50" relative="1" as="geometry">
            <mxPoint x="659" y="680" as="sourcePoint" />
            <mxPoint x="659.44" y="610" as="targetPoint" />
          </mxGeometry>
        </mxCell>
        <mxCell id="BawpG8Cm80USLl9guj2P-59" value="" style="endArrow=none;html=1;rounded=0;" edge="1" parent="1">
          <mxGeometry width="50" height="50" relative="1" as="geometry">
            <mxPoint x="665" y="520" as="sourcePoint" />
            <mxPoint x="750" y="520" as="targetPoint" />
          </mxGeometry>
        </mxCell>
        <mxCell id="BawpG8Cm80USLl9guj2P-60" value="" style="endArrow=none;html=1;rounded=0;" edge="1" parent="1">
          <mxGeometry width="50" height="50" relative="1" as="geometry">
            <mxPoint x="750" y="540" as="sourcePoint" />
            <mxPoint x="750" y="520" as="targetPoint" />
          </mxGeometry>
        </mxCell>
        <mxCell id="BawpG8Cm80USLl9guj2P-61" value="" style="endArrow=none;html=1;rounded=0;" edge="1" parent="1">
          <mxGeometry width="50" height="50" relative="1" as="geometry">
            <mxPoint x="665" y="580" as="sourcePoint" />
            <mxPoint x="750" y="580" as="targetPoint" />
            <Array as="points" />
          </mxGeometry>
        </mxCell>
        <mxCell id="BawpG8Cm80USLl9guj2P-62" value="" style="endArrow=none;html=1;rounded=0;" edge="1" parent="1">
          <mxGeometry width="50" height="50" relative="1" as="geometry">
            <mxPoint x="750" y="600" as="sourcePoint" />
            <mxPoint x="750" y="580" as="targetPoint" />
          </mxGeometry>
        </mxCell>
        <mxCell id="BawpG8Cm80USLl9guj2P-63" value="" style="endArrow=classic;html=1;rounded=0;" edge="1" parent="1">
          <mxGeometry width="50" height="50" relative="1" as="geometry">
            <mxPoint x="750" y="539.44" as="sourcePoint" />
            <mxPoint x="670" y="539.44" as="targetPoint" />
          </mxGeometry>
        </mxCell>
        <mxCell id="BawpG8Cm80USLl9guj2P-64" value="" style="endArrow=classic;html=1;rounded=0;" edge="1" parent="1">
          <mxGeometry width="50" height="50" relative="1" as="geometry">
            <mxPoint x="750" y="600" as="sourcePoint" />
            <mxPoint x="670" y="600" as="targetPoint" />
            <Array as="points" />
          </mxGeometry>
        </mxCell>
        <mxCell id="BawpG8Cm80USLl9guj2P-65" value="" style="endArrow=none;dashed=1;html=1;rounded=0;" edge="1" parent="1">
          <mxGeometry width="50" height="50" relative="1" as="geometry">
            <mxPoint x="389.44" y="130" as="sourcePoint" />
            <mxPoint x="389.44" y="100" as="targetPoint" />
          </mxGeometry>
        </mxCell>
        <mxCell id="BawpG8Cm80USLl9guj2P-68" value="Send the data to the training stage" style="text;whiteSpace=wrap;" vertex="1" parent="1">
          <mxGeometry x="150" y="270" width="190" height="40" as="geometry" />
        </mxCell>
        <mxCell id="BawpG8Cm80USLl9guj2P-70" value="&lt;p class=&quot;MsoNormal&quot;&gt;&lt;font style=&quot;font-size: 18px;&quot; face=&quot;Times New Roman&quot;&gt;Train the &amp;nbsp;&amp;nbsp;&amp;nbsp;data&lt;/font&gt;&lt;span style=&quot;mso-spacerun:&#39;yes&#39;;font-family:Calibri;mso-fareast-font-family:SimSun;&lt;br/&gt;mso-bidi-font-family:&#39;Times New Roman&#39;;font-size:11.0000pt;&quot;&gt;&lt;/span&gt;&lt;/p&gt;" style="text;whiteSpace=wrap;html=1;" vertex="1" parent="1">
          <mxGeometry x="350" y="340" width="120" height="70" as="geometry" />
        </mxCell>
        <mxCell id="BawpG8Cm80USLl9guj2P-77" value="" style="endArrow=none;html=1;rounded=0;" edge="1" parent="1">
          <mxGeometry width="50" height="50" relative="1" as="geometry">
            <mxPoint x="220" y="230" as="sourcePoint" />
            <mxPoint x="220" y="210" as="targetPoint" />
            <Array as="points" />
          </mxGeometry>
        </mxCell>
        <mxCell id="BawpG8Cm80USLl9guj2P-78" value="" style="rounded=0;whiteSpace=wrap;html=1;direction=south;" vertex="1" parent="1">
          <mxGeometry x="385" y="240" width="10" height="50" as="geometry" />
        </mxCell>
        <mxCell id="BawpG8Cm80USLl9guj2P-79" value="" style="endArrow=none;dashed=1;html=1;rounded=0;" edge="1" parent="1">
          <mxGeometry width="50" height="50" relative="1" as="geometry">
            <mxPoint x="389.44" y="290" as="sourcePoint" />
            <mxPoint x="389.44" y="310" as="targetPoint" />
          </mxGeometry>
        </mxCell>
        <mxCell id="BawpG8Cm80USLl9guj2P-81" value="" style="endArrow=none;dashed=1;html=1;rounded=0;labelBackgroundColor=none;fontColor=default;" edge="1" parent="1" target="BawpG8Cm80USLl9guj2P-80">
          <mxGeometry width="50" height="50" relative="1" as="geometry">
            <mxPoint x="390" y="340" as="sourcePoint" />
            <mxPoint x="390" y="360" as="targetPoint" />
          </mxGeometry>
        </mxCell>
        <mxCell id="BawpG8Cm80USLl9guj2P-80" value="" style="rounded=0;whiteSpace=wrap;html=1;direction=south;" vertex="1" parent="1">
          <mxGeometry x="385" y="310" width="10" height="40" as="geometry" />
        </mxCell>
        <mxCell id="BawpG8Cm80USLl9guj2P-84" value="" style="endArrow=none;html=1;rounded=0;" edge="1" parent="1">
          <mxGeometry width="50" height="50" relative="1" as="geometry">
            <mxPoint x="460" y="330" as="sourcePoint" />
            <mxPoint x="460" y="310" as="targetPoint" />
          </mxGeometry>
        </mxCell>
        <mxCell id="BawpG8Cm80USLl9guj2P-90" value="" style="endArrow=none;dashed=1;html=1;rounded=0;" edge="1" parent="1">
          <mxGeometry width="50" height="50" relative="1" as="geometry">
            <mxPoint x="389.44" y="380" as="sourcePoint" />
            <mxPoint x="389.44" y="350" as="targetPoint" />
          </mxGeometry>
        </mxCell>
        <mxCell id="BawpG8Cm80USLl9guj2P-91" value="&lt;p class=&quot;MsoNormal&quot;&gt;&lt;font style=&quot;font-size: 18px;&quot; face=&quot;Times New Roman&quot;&gt;Perforn Preprocessing&lt;/font&gt;&lt;span style=&quot;mso-spacerun:&#39;yes&#39;;font-family:Calibri;mso-fareast-font-family:SimSun;&lt;br/&gt;mso-bidi-font-family:&#39;Times New Roman&#39;;font-size:11.0000pt;&quot;&gt;&lt;/span&gt;&lt;/p&gt;" style="text;whiteSpace=wrap;html=1;" vertex="1" parent="1">
          <mxGeometry x="395" y="270" width="175" height="70" as="geometry" />
        </mxCell>
        <mxCell id="BawpG8Cm80USLl9guj2P-92" value="&lt;p class=&quot;MsoNormal&quot;&gt;&lt;font style=&quot;font-size: 18px;&quot; face=&quot;Times New Roman&quot;&gt;Extracted feature with images sending to the testing stage&lt;/font&gt;&lt;/p&gt;" style="text;whiteSpace=wrap;html=1;" vertex="1" parent="1">
          <mxGeometry x="350" y="400" width="430" height="60" as="geometry" />
        </mxCell>
        <mxCell id="BawpG8Cm80USLl9guj2P-94" value="&lt;p class=&quot;MsoNormal&quot;&gt;&lt;font style=&quot;font-size: 18px;&quot; face=&quot;Times New Roman&quot;&gt;Give input&lt;/font&gt;&lt;span style=&quot;mso-spacerun:&#39;yes&#39;;font-family:Calibri;mso-fareast-font-family:SimSun;&lt;br/&gt;mso-bidi-font-family:&#39;Times New Roman&#39;;font-size:11.0000pt;&quot;&gt;&lt;/span&gt;&lt;/p&gt;" style="text;whiteSpace=wrap;html=1;" vertex="1" parent="1">
          <mxGeometry x="670" y="480" width="90" height="70" as="geometry" />
        </mxCell>
        <mxCell id="BawpG8Cm80USLl9guj2P-95" value="&lt;p class=&quot;MsoNormal&quot;&gt;&lt;font style=&quot;font-size: 18px;&quot; face=&quot;Times New Roman&quot;&gt;Predict the type using proposed algorithm&lt;/font&gt;&lt;span style=&quot;mso-spacerun:&#39;yes&#39;;font-family:Calibri;mso-fareast-font-family:SimSun;&lt;br/&gt;mso-bidi-font-family:&#39;Times New Roman&#39;;font-size:11.0000pt;&quot;&gt;&lt;/span&gt;&lt;/p&gt;" style="text;whiteSpace=wrap;html=1;" vertex="1" parent="1">
          <mxGeometry x="385" y="540" width="315" height="70" as="geometry" />
        </mxCell>
      </root>
    </mxGraphModel>
  </diagram>
</mxfile>
